<svg xmlns="http://www.w3.org/2000/svg" xmlns:xlink="http://www.w3.org/1999/xlink" width="246" height="101" viewBox="0 0 246 101" fill="none"><rect x="0" y="0" width="0" height="0" fill="rgba(249, 249, 249, 1)" /><g opacity="1"  transform="translate(0 0)  rotate(0)"><rect fill="#FFFFFF" opacity="1" transform="translate(0 0)  rotate(NaN)" x="0" y="0" width="246" height="101" /><mask id="bg-mask-0" fill="white"><use transform="translate(0 0)  rotate(NaN)" xlink:href="#path_0"></use></mask><g mask="url(#bg-mask-0)" ><g opacity="1"  transform="translate(18 28)  rotate(0)"><g opacity="1"  transform="translate(54 6)  rotate(0)"><mask id="bg-mask-1" fill="white"><use transform="translate(0 0)  rotate(0)" xlink:href="#path_1"></use></mask><g mask="url(#bg-mask-1)" ><path  id="路径 1" style="fill:#F29F1B; opacity:1;" d="M35.9967,20.0033c0,-8.8328 -7.1605,-16.0033 -15.9934,-16.0033c-8.8384,0 -16.0033,7.1649 -16.0033,16.0033c0,8.8384 7.1649,15.9934 16.0033,15.9934c8.8329,0 15.9934,-7.1605 15.9934,-15.9934zM37.33,20.0033c0,9.5693 -7.7574,17.3267 -17.3267,17.3267c-9.5747,0 -17.33663,-7.7519 -17.33663,-17.3267c0,-9.5747 7.76193,-17.33663 17.33663,-17.33663c9.5693,0 17.3267,7.76743 17.3267,17.33663z"></path><path  id="路径 2" style="fill:#F29F1B; opacity:1;" d="M27.67,19.9967c0,-4.2379 -3.4355,-7.6634 -7.6733,-7.6634c-4.2324,0 -7.6634,3.431 -7.6634,7.6634c0,4.2323 3.431,7.6733 7.6634,7.6733c4.2378,0 7.6733,-3.4355 7.6733,-7.6733zM29.0033,19.9967c0,4.9742 -4.0324,9.0066 -9.0066,9.0066c-4.9687,0 -8.9967,-4.0379 -8.9967,-9.0066c0,-4.9687 4.028,-8.9967 8.9967,-8.9967c4.9742,0 9.0066,4.0224 9.0066,8.9967z"></path><path  id="路径 3" style="fill:#F29F1B; opacity:1;" d="M20.6722,3.33334v33.33296c0,0.0438 -0.00433,0.08717 -0.013,0.1301c-0.0086,0.04293 -0.02133,0.08463 -0.0382,0.1251c-0.01687,0.0404 -0.03757,0.0788 -0.0621,0.1152c-0.02453,0.0364 -0.0524,0.07007 -0.0836,0.101c-0.0312,0.031 -0.06517,0.05863 -0.1019,0.0829c-0.03667,0.02433 -0.0754,0.0449 -0.1162,0.0617c-0.04073,0.01673 -0.08277,0.02937 -0.1261,0.0379c-0.04327,0.00853 -0.08697,0.0128 -0.1311,0.0128c-0.04413,0 -0.08783,-0.00427 -0.1311,-0.0128c-0.04333,-0.00853 -0.08537,-0.02117 -0.1261,-0.0379c-0.0408,-0.0168 -0.07953,-0.03737 -0.1162,-0.0617c-0.03673,-0.02427 -0.0707,-0.0519 -0.1019,-0.0829c-0.0312,-0.03093 -0.05907,-0.0646 -0.0836,-0.101c-0.02453,-0.0364 -0.04523,-0.0748 -0.0621,-0.1152c-0.01687,-0.04047 -0.02963,-0.08217 -0.0383,-0.1251c-0.0086,-0.04293 -0.0129,-0.0863 -0.0129,-0.1301v-33.33296c0,-0.04378 0.0043,-0.08713 0.0129,-0.13006c0.00867,-0.04293 0.02143,-0.08462 0.0383,-0.12507c0.01687,-0.04044 0.03757,-0.07886 0.0621,-0.11525c0.02453,-0.0364 0.0524,-0.07008 0.0836,-0.10103c0.0312,-0.03095 0.06517,-0.05859 0.1019,-0.08291c0.03667,-0.02432 0.0754,-0.04485 0.1162,-0.0616c0.04073,-0.01675 0.08277,-0.0294 0.1261,-0.03794c0.04327,-0.00854 0.08697,-0.01281 0.1311,-0.01281c0.04413,0 0.08783,0.00427 0.1311,0.01281c0.04333,0.00854 0.08537,0.02119 0.1261,0.03794c0.0408,0.01675 0.07953,0.03728 0.1162,0.0616c0.03673,0.02432 0.0707,0.05196 0.1019,0.08291c0.0312,0.03095 0.05907,0.06463 0.0836,0.10103c0.02453,0.03639 0.04523,0.07481 0.0621,0.11525c0.01687,0.04045 0.0296,0.08214 0.0382,0.12507c0.00867,0.04293 0.013,0.08628 0.013,0.13006z"></path><path  id="路径 4" style="fill:#F29F1B; opacity:1;" d="M3.33373,19.3335l11.66697,0.007c0.0438,0 0.08717,0.0043 0.1301,0.0129c0.04293,0.00853 0.0846,0.0212 0.125,0.038c0.04047,0.0168 0.07887,0.03737 0.1152,0.0617c0.0364,0.02433 0.07007,0.052 0.101,0.083c0.03093,0.03093 0.05857,0.0646 0.0829,0.101c0.02427,0.0364 0.04477,0.07483 0.0615,0.1153c0.01673,0.04047 0.02937,0.08217 0.0379,0.1251c0.00847,0.04293 0.0127,0.0863 0.0127,0.1301c0,0.04373 -0.0043,0.08707 -0.0129,0.13c-0.00853,0.04293 -0.0212,0.08463 -0.038,0.1251c-0.0168,0.0404 -0.03737,0.0788 -0.0617,0.1152c-0.02433,0.0364 -0.05197,0.07007 -0.0829,0.101c-0.031,0.03093 -0.0647,0.05853 -0.1011,0.0828c-0.0364,0.02433 -0.07483,0.04487 -0.1153,0.0616c-0.04047,0.01667 -0.08217,0.02927 -0.1251,0.0378c-0.04293,0.00853 -0.0863,0.01277 -0.1301,0.0127l-11.66697,-0.007c-0.04377,0 -0.08712,-0.00427 -0.13005,-0.0128c-0.04293,-0.0086 -0.08461,-0.0213 -0.12504,-0.0381c-0.04043,-0.01673 -0.07884,-0.03727 -0.11522,-0.0616c-0.03638,-0.02433 -0.07004,-0.052 -0.10098,-0.083c-0.03093,-0.031 -0.05855,-0.0647 -0.08284,-0.1011c-0.0243,-0.0364 -0.04481,-0.07483 -0.06154,-0.1153c-0.01673,-0.04047 -0.02935,-0.08217 -0.03786,-0.1251c-0.00851,-0.04293 -0.01276,-0.08627 -0.01273,-0.13c0.00002,-0.0438 0.00431,-0.08717 0.01288,-0.1301c0.00857,-0.04293 0.02124,-0.0846 0.03802,-0.125c0.01677,-0.04047 0.03733,-0.07887 0.06167,-0.1152c0.02434,-0.0364 0.052,-0.07007 0.08297,-0.101c0.03097,-0.03093 0.06466,-0.05857 0.10107,-0.0829c0.03641,-0.02427 0.07485,-0.04477 0.1153,-0.0615c0.04045,-0.01673 0.08215,-0.02937 0.12508,-0.0379c0.04294,-0.00847 0.0863,-0.0127 0.13007,-0.0127z"></path><path  id="路径 5" style="fill:#F29F1B; opacity:1;" d="M3.33333,19.3348h33.33297c0.0438,0 0.08717,0.0043 0.1301,0.0129c0.04293,0.0086 0.08463,0.02133 0.1251,0.0382c0.0404,0.01693 0.0788,0.03763 0.1152,0.0621c0.0364,0.02453 0.07007,0.0524 0.101,0.0836c0.031,0.0312 0.05863,0.06517 0.0829,0.1019c0.02433,0.03667 0.04487,0.0754 0.0616,0.1162c0.0168,0.0408 0.02947,0.08283 0.038,0.1261c0.00853,0.04327 0.0128,0.08697 0.0128,0.1311c0,0.04413 -0.00427,0.08787 -0.0128,0.1312c-0.00853,0.04327 -0.0212,0.0853 -0.038,0.1261c-0.01673,0.04073 -0.03727,0.07947 -0.0616,0.1162c-0.02427,0.03667 -0.0519,0.0706 -0.0829,0.1018c-0.03093,0.0312 -0.0646,0.05907 -0.101,0.0836c-0.0364,0.02453 -0.0748,0.04523 -0.1152,0.0621c-0.04047,0.01693 -0.08217,0.0297 -0.1251,0.0383c-0.04293,0.0086 -0.0863,0.0129 -0.1301,0.0129h-33.33297c-0.04377,0 -0.08713,-0.0043 -0.13006,-0.0129c-0.04293,-0.0086 -0.08462,-0.02137 -0.12506,-0.0383c-0.04044,-0.01687 -0.07886,-0.03757 -0.11526,-0.0621c-0.03639,-0.02453 -0.07007,-0.0524 -0.10102,-0.0836c-0.03095,-0.0312 -0.05859,-0.06513 -0.08291,-0.1018c-0.02432,-0.03673 -0.04486,-0.07547 -0.06161,-0.1162c-0.01675,-0.0408 -0.0294,-0.08283 -0.03794,-0.1261c-0.00853,-0.04333 -0.0128,-0.08707 -0.0128,-0.1312c0,-0.04413 0.00427,-0.08783 0.0128,-0.1311c0.00854,-0.04327 0.02119,-0.0853 0.03794,-0.1261c0.01675,-0.0408 0.03729,-0.07953 0.06161,-0.1162c0.02432,-0.03673 0.05196,-0.0707 0.08291,-0.1019c0.03095,-0.0312 0.06463,-0.05907 0.10102,-0.0836c0.0364,-0.02447 0.07482,-0.04517 0.11526,-0.0621c0.04044,-0.01687 0.08213,-0.0296 0.12506,-0.0382c0.04293,-0.0086 0.08629,-0.0129 0.13006,-0.0129z"></path></g></g><g opacity="1" transform="translate(0 0)  rotate(0)"><a xlink:href="https://" xlink:title="跳转" target="_blank"><text><tspan x="0" y="36" font-size="36" line-height="0" fill="#F29F1B" opacity="1" font-family="YouSheBiaoTiHei" font-weight="Regular" letter-spacing="0" >CS</tspan></text></a></g><g opacity="1" transform="translate(94 0)  rotate(0)"><a xlink:href="https://" xlink:title="跳转" target="_blank"><text><tspan x="0" y="36" font-size="36" line-height="0" fill="#F29F1B" opacity="1" font-family="YouSheBiaoTiHei" font-weight="Regular" letter-spacing="0" >Buyer</tspan></text></a></g></g></g></g><defs><rect id="path_0" x="0" y="0" width="246" height="101" /><rect id="path_1" x="0" y="0" width="40" height="40" /></defs></svg>